<?xml version="1.0" encoding="utf-8"?>
<svg xmlns="http://www.w3.org/2000/svg" viewBox="0 0 500 500">
  <defs>
    <clipPath id="SvgjsClipPath2103">
      <path d=" M 0 0 h 6.36436524294301 v 6.834825532185299 h -6.36436524294301 Z"/>
    </clipPath>
    <clipPath id="SvgjsClipPath2099aae6cb3c-5e7a-4b2b-a6f7-59f27010e572">
      <path d=" M 0 0 L 6.36436524294301 0 L 6.36436524294301 6.834825532185298 L 0 6.834825532185298 Z"/>
    </clipPath>
  </defs>
  <g clip-path="url(#SvgjsClipPath2103)" style="" transform="matrix(65.993599, 0, 0, 65.993599, 39.079086, 27.31036)">
    <g clip-path="url(#SvgjsClipPath2099aae6cb3c-5e7a-4b2b-a6f7-59f27010e572)">
      <path d=" M 3.180038465689476 6.274465512789663 C 2.9697969300543607 6.274515968032172 2.760085643880761 6.253375236391096 2.554084308759877 6.211363859594376 C 2.156715029926504 6.129984249789294 1.7792592811849668 5.971154355265676 1.4432568009773876 5.743937899112212 C 0.9438550268462507 5.406802848795505 0.5529489994723162 4.932064791861759 0.31790786270000404 4.377251455520469 C 0.2384575317352016 4.189318252103646 0.17782060050809212 3.9939763755626387 0.13688538212775309 3.7940875266163276 C 0.05272902134092978 3.3810276537409907 0.05272902134092978 2.95523908563248 0.13688538212775447 2.5421792127571377 C 0.21826499193283652 2.1448099339237596 0.37709488645645545 1.767354185182223 0.6043113426099203 1.431351704974644 C 0.941439242133736 0.9319886433160233 1.4161467802655059 0.5411071159958993 1.9709203798557402 0.3060646917739996 C 2.158857240991065 0.22662061671176595 2.3541979705049028 0.16597885582257826 2.554084308759875 0.1250267299325664 C 2.9671514906374057 0.04089115977913027 3.3929409220107307 0.04089115977913027 3.8060081038882596 0.12502672993256567 C 4.203375396532603 0.20642115035031242 4.580829311123722 0.3652555335421542 4.916835611670749 0.5924681716839149 C 5.416221579573825 0.9295871140841304 5.807125349541578 1.404295541453453 6.042184549948132 1.959077208929734 C 6.121623620208903 2.1470145287259395 6.182260199844991 2.342355272616454 6.223207030520382 2.5422411378338765 C 6.307363391307207 2.9553010107092157 6.307363391307207 3.381089578817727 6.223207030520382 3.7941494516930683 C 6.141823534429515 4.191522323584458 5.982994029980344 4.568982405797084 5.75578107003822 4.9049924407447385 C 5.418662127638001 5.404378408647818 4.943953700268678 5.795282178615572 4.389172032792397 6.030341379022127 C 4.201254629902315 6.109776561317414 4.005934814315131 6.17041308338461 3.806070028964993 6.211363859594376 C 3.6000431587526034 6.253379162977918 3.3903058050673924 6.2745199081587115 3.1800384656894725 6.274465512789663 Z" fill="#d8cdc5" transform="matrix(1,0,0,1,0,0)" fill-rule="nonzero"/>
    </g>
    <g clip-path="url(#SvgjsClipPath2099aae6cb3c-5e7a-4b2b-a6f7-59f27010e572)">
      <path d=" M 3.180038465689476 0.12385015347455751 C 4.8613971867217005 0.12385015347455751 6.2243990882475755 1.4868984988079845 6.2243990882475755 3.1681643322251025 C 6.2243990882475755 4.849430165642221 4.8613971867217005 6.212540436052385 3.180038465689476 6.212540436052385 C 1.4986797446572522 6.212540436052385 0.13569332440056212 4.849538534526512 0.13569332440056212 3.1681643322251025 C 0.13569332440056212 1.486790129923694 1.4986952259264363 0.12385015347455751 3.180038465689476 0.12385015347455751 M 3.180038465689476 0 C 2.965626118743872 -0.000045769708182360466 2.7517551257573225 0.021520268580603207 2.5416683308740566 0.06437111726840104 C 2.1363409573290078 0.14740013505697466 1.7513273519160106 0.30942252946495835 1.4085942392736972 0.541194208145447 C 0.8992863033176466 0.8850190718988729 0.5006089603909578 1.369156850691471 0.26085938575578727 1.934957391540565 C 0.1798156596109135 2.1266631940245357 0.11796016605789061 2.3259252111082795 0.07619880692522123 2.5298251599480492 C -0.009629482073510543 2.95107792380125 -0.009629482073510543 3.3853126657256887 0.07619880692522123 3.806565429578892 C 0.1592154171719454 4.211901439495457 0.32123871801896814 4.596922459375149 0.5530218978022671 4.939655002448434 C 0.8968395428905238 5.448959720552 1.3809730415677777 5.847632589636474 1.946769599928202 6.087374374697161 C 2.138480493388071 6.168404173936033 2.3377411099397594 6.230259232731832 2.5416373683356825 6.272034953527726 C 2.9628922268250886 6.3578424674795775 3.397122779477122 6.3578424674795775 3.8183776379665253 6.272034953527726 C 4.223713647883096 6.189018343281003 4.6087346677627865 6.026995042433979 4.951467210836071 5.79521186265068 C 5.460778878384274 5.451381765702061 5.859452414364631 4.967231324380068 6.099186583084797 4.401417716717194 C 6.180218593433358 4.209702296981584 6.242073705289762 4.010436323792936 6.283847161915361 3.806534467040529 C 6.369675450914094 3.3852817031873226 6.369675450914094 2.951046961262884 6.283847161915362 2.529794197409681 C 6.200826678673035 2.124464182111397 6.03880360515541 1.739448962931042 5.807024071038316 1.396720105809324 C 5.463208571594013 0.887395166690571 4.979053757349782 0.48871802982870927 4.41322992510483 0.2490007335605997 C 4.221553324059373 0.16797218308382647 4.022322603807862 0.10612711762872547 3.818455044312453 0.0643711172684014 C 3.608368486722626 0.021518707530553544 3.394497335579505 -0.00004734670621383427 3.180084909497029 2.8263459319357625e-16 Z" fill="#210e03" transform="matrix(1,0,0,1,0,0)" fill-rule="nonzero"/>
    </g>
    <g clip-path="url(#SvgjsClipPath2099aae6cb3c-5e7a-4b2b-a6f7-59f27010e572)">
      <path d=" M 0.7676232512353077 4.3941879640081165 L 0.12013464887032084 5.467659169248844 C 0.3377393685251185 5.928118558598063 2.796954459723486 6.2549745948866065 3.0082583028202645 6.745653421683619 C 3.3976122228059054 6.798289736910306 3.4459137826609822 6.6967635735995374 3.6983513579805 6.43884562898877 C 3.768961426730182 6.330894738966509 6.517985877059013 5.7408261640061635 6.220250108106177 5.408118207965949 C 6.220250108106177 5.408025320350844 5.581276203792567 4.343006888084755 5.581276203792567 4.343006888084755 C 5.513375357150141 4.3704396970793695 5.29450117342223 4.443635137782833 5.2489862420203295 4.496379821893811 C 5.283045034225833 4.659862024480226 5.166935515343435 4.765630055547498 5.078599393377706 4.8797424907051195 C 4.686923283014418 5.065517720916955 2.6370329490494644 4.452335611064421 2.190460258158578 4.419763020700613 C 2.0662540354927814 4.419763020700613 1.1743626365149398 4.479288500714322 1.082914779443163 4.385611340880004 C 1.0148900826472615 4.448836844228764 0.8455869228475417 4.406665866970678 0.7676232512353077 4.3941879640081165 Z" fill="#ce1111" transform="matrix(1,0,0,1,0,0)" fill-rule="nonzero"/>
    </g>
    <g clip-path="url(#SvgjsClipPath2099aae6cb3c-5e7a-4b2b-a6f7-59f27010e572)">
      <path d=" M 0.8102122227613711 4.3175092377381805 L 0.9067688986639731 4.431110791012718 L 1.151032363854169 4.3686283885848045 L 1.190788263119502 4.4083842878501365 C 1.2040092670029112 5.16334386089267 1.3450900730796165 4.864988841172462 1.9348799851946439 4.925257422107018 C 1.9348799851946439 4.925257422107018 1.9348799851946439 4.402702662059491 1.9348799851946439 4.402702662059491 L 3.440015419101757 4.4083842878501365 C 3.4620297838818592 4.587239390736582 4.030687763560291 4.509538900700481 4.138638653582552 4.533349092705965 C 4.18497409225122 4.68661365763073 4.456469109936635 4.854895053664284 4.587363240890058 4.925226459568649 C 4.777782851857189 4.970044733857255 4.948943763959028 4.964873989949692 5.126900953232784 4.868410201662196 C 5.14064832026846 4.837540550908662 5.282085195536404 4.53949515657214 5.268910635460548 4.510622589543384 C 5.442842694746381 4.390782084787565 5.524475427155298 4.4105981093434945 5.501748923992717 4.158470159407664 C 5.348670134298163 3.7689769079993645 5.271728226452095 4.12204273301696 5.20074660724199 3.6472941322106123 C 5.075487658271658 3.4876667656510922 4.814473459824029 3.462138152766149 4.632754322138484 3.4429413789775927 C 4.632754322138484 3.4429413789775927 4.331736524118572 3.5791765477996056 4.331736524118572 3.5791765477996056 L 4.18966491681407 3.9824790913203185 C 3.5469445453578534 3.9868448092302966 1.5454641401322662 4.203644502887509 0.8726946251892854 4.033567279628573 C 0.8021155189779718 4.1417503886886 0.7719425253377329 4.179230541383838 0.8102122227613711 4.3175092377381805 Z" fill="#ffcc33" transform="matrix(1,0,0,1,0,0)" fill-rule="nonzero"/>
    </g>
    <g clip-path="url(#SvgjsClipPath2099aae6cb3c-5e7a-4b2b-a6f7-59f27010e572)">
      <path d=" M 1.4293081774423155 3.8404074840158167 C 1.7628211594801146 3.7785752948936437 2.4206512496602266 3.9193619568558464 2.7356486337535797 4.033582760897758 C 2.7356486337535797 4.033582760897758 3.5535395660303735 4.0278392100303755 3.5535395660303735 4.0278392100303755 C 3.785603791103325 3.8889722254470276 4.57446734365952 3.291395234932288 4.871196830115375 3.431516202319565 C 4.976469460568749 2.9998210111148107 4.618294816720328 2.69250233653688 4.394095076393011 2.3920728267459723 C 4.514322612878438 2.185258551712646 4.349199395758484 1.682566260028601 4.286175148909119 1.4776097372973929 C 4.33015743466177 1.3394394098273394 4.475185964380478 0.9469273109280981 4.5304695766376835 0.8074101130390088 L 4.07039721901807 1.0743691188534177 L 3.6841705154076627 1.261800844867976 C 3.573231740432828 1.1376255847405476 3.1332385889452783 1.1542989116520601 2.9855472809268684 1.1482302541318068 C 2.5533566891082153 1.423038263422666 2.183710424794214 0.9276995746011729 1.8268671700956456 0.761988069252215 C 1.8268671700956456 0.761988069252215 1.8836834280020986 1.3469942691892873 1.8836834280020986 1.3469942691892873 C 2.1046166205315253 1.4669586240985806 2.34013316863258 1.400156947568241 1.974558478114055 1.6082406866746821 C 1.9530240326786668 1.8133829846361023 1.8877550017975746 2.1561847281844932 2.0484505759308136 2.329590424318058 C 1.9662295552928915 2.4393371415657006 1.6987441863262158 2.722520517485276 1.5996950260849387 2.823737055412358 C 1.5632056746174963 3.003675847141706 1.3486198024536418 3.6610260179771044 1.4293081774423155 3.8404074840158167 Z" fill="#bf896b" transform="matrix(1,0,0,1,0,0)" fill-rule="nonzero"/>
    </g>
    <g clip-path="url(#SvgjsClipPath2099aae6cb3c-5e7a-4b2b-a6f7-59f27010e572)">
      <path d=" M 2.991259869255882 2.0228910005075007 C 2.991259869255882 2.2393360138290954 2.8157965531764235 2.4147993299085537 2.5993515398548293 2.4147993299085537 C 2.3829065265332345 2.4147993299085537 2.207443210453776 2.2393360138290954 2.207443210453776 2.0228910005075007 C 2.207443210453776 1.8064459871859062 2.3829065265332345 1.6309826711064477 2.5993515398548293 1.6309826711064477 C 2.8157965531764235 1.6309826711064477 2.991259869255882 1.8064459871859062 2.991259869255882 2.0228910005075007 Z" fill="#ffffff" transform="matrix(1,0,0,1,0,0)" fill-rule="nonzero"/>
    </g>
    <g clip-path="url(#SvgjsClipPath2099aae6cb3c-5e7a-4b2b-a6f7-59f27010e572)">
      <path d=" M 4.144242873027276 2.0172093747168556 C 4.144242873027276 2.23365438803845 3.968779556947817 2.409117704117908 3.7523345436262225 2.409117704117908 C 3.535889530304628 2.409117704117908 3.360426214225169 2.23365438803845 3.360426214225169 2.0172093747168556 C 3.360426214225169 1.8007643613952609 3.535889530304628 1.6253010453158023 3.7523345436262225 1.6253010453158023 C 3.968779556947817 1.6253010453158023 4.144242873027276 1.8007643613952609 4.144242873027276 2.0172093747168556 Z" fill="#ffffff" transform="matrix(1,0,0,1,0,0)" fill-rule="nonzero"/>
    </g>
    <g clip-path="url(#SvgjsClipPath2099aae6cb3c-5e7a-4b2b-a6f7-59f27010e572)">
      <path d=" M 3.093482689679945 2.22168597810335 C 2.985392468235025 2.348075059724136 3.001198844072215 2.3604136312640387 3.0480606458931505 2.5113560058111557 C 3.2555096529630347 2.8668523900906893 3.2011239543185193 2.6213659046349314 3.371820428344829 2.3977544525366175 C 3.279459176391178 2.206049896227187 3.327698811169517 2.1775333983896696 3.093482689679945 2.22168597810335 Z" fill="#ffcc33" transform="matrix(1,0,0,1,0,0)" fill-rule="nonzero"/>
    </g>
    <g clip-path="url(#SvgjsClipPath2099aae6cb3c-5e7a-4b2b-a6f7-59f27010e572)">
      <path d=" M 6.318323948388843 5.346162168690302 C 6.076088529461793 4.961901586266303 5.800134906251295 4.592085027991274 5.574603776774126 4.200439880166355 C 5.564788652111266 4.045627188323158 5.487010755729244 3.9374595605323166 5.348236658761003 3.8729800743796248 C 5.321748207186633 3.860672465378091 5.315725993473932 3.844912533348453 5.310323030528605 3.8187027446194 C 5.289980642820409 3.6391200220812916 5.186163251670361 3.4852981314658913 5.012184748576975 3.425060513069704 C 4.992848643365761 3.417180547054885 4.980386221672383 3.408727774080246 4.979348976637033 3.3838493745010445 C 4.965106208987459 3.0064779568640687 4.773184914909448 2.6576694808721615 4.5001572515747865 2.4037457037109493 C 4.477632004911601 2.3822267395447447 4.450617190184963 2.366822876706347 4.46934952589799 2.3222677839938743 C 4.593400935871943 2.038759301421428 4.54547092647729 1.7670785085058023 4.371817530036776 1.5152292214152894 C 4.5000179201521275 1.460580341194641 4.587254872005769 1.3760526114482552 4.611777202393731 1.2337797476443577 C 4.559140887167044 1.2754708055577306 4.512000422500791 1.3193137598877238 4.445167783432083 1.3321012882339718 C 4.638962311081396 1.135690426092508 4.686412401131335 0.8271951750565696 4.558459711322933 0.5803773004509608 L 4.287537500597338 0.8099180786468688 L 4.218661333996301 0.6743331231305968 C 4.182543532989283 0.8933466382811678 4.005019819252689 1.0327090234784135 3.8207927159592843 1.1283523044991404 C 3.7882820506722132 1.1461248015227397 3.758666382722609 1.1483541042852814 3.7236322705584937 1.1352414692861628 C 3.552037882919494 1.0710251647096047 3.374096174914923 1.0358517211228302 3.190952760464422 1.0361613465065167 C 2.996848607431421 1.0364864531593874 2.8084105989198824 1.0736105366633861 2.625638734929804 1.1396381497345096 C 2.6101574657454845 1.1452423691792335 2.587322593698613 1.147843222402199 2.5743492901221527 1.1404896195396472 C 2.3505211002552584 1.0179244114073882 2.2000431637836706 0.9357653158462037 2.13986747046422 0.6690385290695596 L 2.0739482262773876 0.8071624127320601 C 1.988305845149731 0.7441536471518786 1.9113948998420305 0.6711130191402587 1.8300563115476154 0.6028096594990401 C 1.8077168401146417 0.5832722977884286 1.7909970693955768 0.5809655886799651 1.7831635471883112 0.6126093028927145 C 1.6888671365866195 0.8739331267240309 1.7167179398492107 1.116354320881293 1.9054655737444366 1.327735570323994 L 1.8957742992350524 1.3373494384874565 L 1.7469218960278186 1.23475506760297 C 1.7738747856777193 1.3774149631364758 1.859687460766403 1.463274082032713 1.980781948326151 1.516885717218012 C 1.8226717461466948 1.7664437764692453 1.7669082145447748 2.0328609378622025 1.882661664235933 2.312979022483283 C 1.8985144838806765 2.3535709102845694 1.887538264028994 2.372999903110891 1.8616226194144427 2.4006804124124543 C 1.4668502552142906 2.7773861354745057 1.2813691691169564 3.3047865327767236 1.3537131400152826 3.845624671730933 C 1.3579704890409703 3.880209827088703 1.3608500051092538 3.893755937624983 1.3762229054092834 3.89905053168602 C 1.3657730487098678 3.912983673951908 1.3586516648850808 3.931669565857382 1.3593947658059282 3.9484048178456317 C 1.3601069041884069 3.9644898565281395 1.3643487719449103 3.9810393332861778 1.3734517582252899 3.994477074938167 L 1.3651073541349419 4.012234090692582 C 1.319561460194673 4.012326978307687 1.2740155662544046 4.012445668038101 1.2284696723141362 4.012590159883821 C 1.1998138430539604 4.012698528768111 1.1688358234161367 4.016212776872952 1.1431523978393503 4.027653434800164 C 1.076103021002062 4.058894636014121 1.0498467884654556 3.971409983853531 0.9376540306866908 3.9913808211013033 C 0.8177516008541347 4.009137836855717 0.7419088631201527 4.0978300280126865 0.7451599296488598 4.2193889536479645 C 0.7461507308766562 4.25611052415317 0.7360104995609269 4.285617823218484 0.7170459448101352 4.314815496900111 C 0.6486342162846265 4.420165533699406 0.5810275137567025 4.526057414920152 0.5123680849242446 4.63123715775842 C 0.3556821595097449 4.871103942500268 0.2000334791305949 5.111822197047254 0.041025363338447175 5.350280186293331 C -0.04918399219858361 5.485617441502654 0.01661140183477512 5.645446064561571 0.16642364373143678 5.684675600674637 C 0.3266702610583299 5.726598877625774 0.48389803089428046 5.780489175656391 0.6414663886522864 5.83216565219365 C 1.2708109435332504 6.041658186795864 1.8999232793764498 6.2519402661264785 2.5355067857386944 6.442003807902371 C 2.583777383055403 6.456664569819923 2.612789281506818 6.481310750361359 2.6375747934709137 6.524379641232136 C 2.8636013235619813 6.953613310636585 3.5388788041128225 6.933301885466757 3.740708110468798 6.49142001913872 C 3.748371338715036 6.47654251945259 3.7665927925449796 6.46239263941812 3.782817162650147 6.457361226933217 C 4.597983391550501 6.216952597769916 5.402312732021831 5.942593545285402 6.20947514475389 5.677105260043505 C 6.352862659939061 5.6320392854479495 6.413704047833437 5.479517821444032 6.318323948388843 5.346162168690302 Z M 5.939930766985701 5.076246240461689 C 5.948321614883603 5.09226935406746 5.959700347734079 5.106697896947246 5.972596244964617 5.12617333358112 C 5.233443047759272 5.453586695560297 4.419592726739585 5.5953486774811125 3.7116342869406456 5.994688016090638 C 3.709807497176896 5.991591762253775 3.7079961886823307 5.988495508416911 3.7061848801877657 5.985399254580047 C 3.8615084539140443 5.808572197956748 4.066403051568516 5.704894138229359 4.285029534989478 5.605380539912551 C 4.041803314834632 5.630150570607464 3.827681880746306 5.704460662692198 3.6293513412259872 5.836407519950155 C 3.5711262878237604 5.87542031829464 3.5683396593705834 5.826406620057084 3.51869122909647 5.796047851186633 C 3.644538466295805 5.685325813980379 3.800140702867402 5.628664368765769 3.958699861853204 5.587468711466293 C 4.600413950812439 5.417608225975939 5.267455396157223 5.321964944955211 5.880513655856283 5.058613074860749 C 5.908302534042136 5.046305465859215 5.925657036797758 5.048952762889733 5.939930766985701 5.076246240461689 Z M 5.818727910541663 4.863471676792399 C 5.845758206537485 4.904388671246555 5.847507589955313 4.90418741474716 5.804996024775171 4.926821030294635 C 5.094405769214897 5.34554291792293 4.190299648850627 5.263182565862349 3.497048414776791 5.6931438549184605 C 3.4473225781567565 5.731847027879259 3.43722879064858 5.757654303609519 3.37874055567022 5.701720478046573 C 3.7748288277510387 5.2419267832722785 4.4245931766861215 5.249884155633018 4.972692030887775 5.129439881379011 C 5.240378656353847 5.064666251111818 5.503498307410545 4.969781552281122 5.75030070074697 4.845993323883302 C 5.783446098070598 4.829985691546715 5.799887205944345 4.834924216416513 5.818727910541663 4.863471676792399 Z M 5.5164096859102685 4.4044830080156885 C 5.58235989263547 4.486363440731555 5.638835562619867 4.581913834137177 5.701875290738417 4.666844076882354 C 5.719616825223647 4.691614107577266 5.714523487662007 4.706259388225632 5.690063082350781 4.718690847380641 C 5.598801000509217 4.765057248587678 5.508576163703001 4.813436214788678 5.4161220241342445 4.857170800234381 C 4.74294999619247 5.200049950128693 3.842358123933041 5.0272944673008695 3.3128677552909394 5.644517188410511 C 3.29806766195073 5.662707679702087 3.28384037557034 5.662723160971272 3.265448627779368 5.652257823002671 C 3.2409572599297736 5.638324680736783 3.256624304344306 5.622224160785091 3.2639779072068578 5.609080563247604 C 3.48604123238674 5.2217701707942945 3.9319482287027 5.040205845800592 4.352713643863325 4.967474843172658 C 4.44168449786561 4.943680132436358 4.526196746342811 4.948030369077153 4.615988107611865 4.978636838254553 C 4.912640187721799 5.099266887738772 5.308620090918329 4.905116290898219 5.315958212511696 4.563955561883366 C 5.317428933084206 4.536507271619566 5.327816864706885 4.526475409188127 5.350883955791521 4.5133937367273775 C 5.4062604556638325 4.48193579774484 5.457766638240065 4.44369706285957 5.5164096859102685 4.4044830080156885 Z M 2.950157099571513 3.3589400123834743 C 3.1016567998092657 3.5029158157976474 3.2482489377155894 3.5019714583774033 3.3999498944527375 3.3547136258961547 C 3.436996571610814 3.51571882541308 3.36279484841037 3.688799414893774 3.209050364140891 3.750260053555523 C 3.1908598728493156 3.7575517313413376 3.1648048968121056 3.758372238608106 3.146862105827479 3.7511115233606604 C 2.9813363757087328 3.6836905960629482 2.9087447045034582 3.519852324285293 2.950157099571513 3.3589400123834743 Z M 3.122370737977885 3.891139603132832 C 3.113840558657325 3.9167765849020655 3.05855694640012 3.9893527748381565 3.024544598002169 3.9757292579559547 C 2.9242878987645144 3.9238205623809304 2.9202937313149597 3.8720047544210128 2.9441968109355496 3.7665927925449796 Z M 3.3925653290518167 3.7772593870129767 C 3.437461009686344 3.8480861935312394 3.4353091132697235 3.8941274880854055 3.360410732955985 3.954194812520566 C 3.315406683437167 3.9902661697200315 3.310561046182476 3.989414699914893 3.2703407088416134 3.949720725726298 C 3.2526146556255675 3.932242372817201 3.237830043554542 3.9117606536863456 3.222488105792882 3.8934927560488486 Z M 3.4132328234128835 3.2275349995469687 C 3.381279483816448 3.193476207341465 3.3842209249614688 3.192098374384061 3.3549768074722883 3.230894434959966 C 3.3317549036958094 3.261655716829209 3.306303697156787 3.293825794194226 3.274721908020775 3.3144932885552927 C 3.181834292914857 3.3752108262961937 3.1744497275139363 3.3742664688759505 3.0767938814992477 3.3150041704383746 C 3.0302417050619983 3.2824160988053817 2.9976536334290063 3.2400593463170835 2.95978644900416 3.1947921152221324 C 2.9241795298802247 3.2407560034303775 2.8857859823031116 3.2751863460963038 2.8431196044311267 3.3126355362531736 C 2.805345307621386 3.343721924775287 2.7680199676179913 3.3355787771843355 2.7305707774611228 3.307170648231108 C 2.5816409679079673 3.1999473778605103 2.6094917711705583 3.0186771969813115 2.646290748021686 2.8638335425997457 C 2.6510744601996414 2.8370509469108725 2.6655494468869803 2.8268797530567746 2.692533299075249 2.8325304163090514 C 2.7171330358091326 2.837670197678246 2.738651999975337 2.840503269938976 2.7377231238242783 2.876079226524543 C 2.7366858787889288 2.915757719443955 2.743280899461449 2.955683912670315 2.7475072859487684 2.9954088493972786 C 2.7481884617928785 3.001802613570403 2.7537771999684186 3.0076545333220754 2.7570901915738624 3.0137696346498823 L 2.7679270800028863 3.014187628917859 C 2.7807920146950553 2.9765836260691465 2.7943381252313353 2.9391653984506454 2.8062741837724463 2.901267251487431 C 2.813380086328049 2.878695561016693 2.811924847024723 2.8525167348260085 2.849250187028118 2.855984539123296 C 2.8865755270315128 2.859452343420583 2.876326926831493 2.8873960342982805 2.880383019357785 2.9074907216995274 C 2.8882939479109724 2.9465344825823814 2.8942232740085667 2.9859497939256596 2.9009731073729306 3.025148367500357 L 2.9141012236412336 3.0262010938048904 C 2.924055679726751 2.985051880312969 2.9352795998853827 2.9441503671279965 2.943515635091441 2.902691528252388 C 2.9475562463485487 2.882132402775611 2.9519529267968947 2.869019767776493 2.9773422082591794 2.8708620388094266 C 3.0027314897214636 2.872704309842361 3.0045582794852135 2.8881081726807585 3.0079177148982104 2.9075990905838176 C 3.015875087258951 2.9539345292524857 3.026247537612446 2.9998674549223625 3.035644668007327 3.045955193284082 L 3.05174518795902 3.046079043437557 C 3.0584485775158297 3.0055181181746393 3.0667929816061776 2.9651274868727486 3.0711741807853414 2.924318861302882 C 3.0734189648170673 2.9034191479040508 3.075230273311633 2.889749187214296 3.101424580771502 2.890167181482273 C 3.1255753606990404 2.890554213211881 3.135483372977005 2.8986199544569113 3.138579626813869 2.9234364289593757 C 3.143224007569165 2.960978506731351 3.152791431925074 2.997916815005138 3.1602534036719163 3.0351183048550574 L 3.1801003907662144 3.0355208178538504 C 3.1879958380502176 3.0001306364984957 3.1989410953635318 2.965081043065196 3.2027494875828744 2.92925738617268 C 3.205474190959315 2.9035739605958937 3.2126729811300234 2.8922261902837874 3.239424614280528 2.891436645555387 C 3.268312662578468 2.8905696944810657 3.268482956539496 2.9081254537360848 3.27157921037636 2.928885835712257 C 3.277214392359452 2.9666291699836282 3.2860387157945143 3.0039080661794704 3.2935316500797254 3.0413727376055233 L 3.3078053802676677 3.0415894753741037 C 3.316583259895177 3.0019419449930607 3.32834902447526 2.9626350025340735 3.3333649556909797 2.9225849591542388 C 3.339557463364707 2.8726114222272545 3.337188829179506 2.8723172781127526 3.3906456516729624 2.877689278519711 C 3.402886175174698 2.9276215320622043 3.4151370195225565 2.977589908566127 3.4273981847165373 3.027594408031479 L 3.4418886526730605 3.0274086328012673 C 3.4489171488827415 2.982605839781846 3.458082060239859 2.9380043032618213 3.4621381527661503 2.892922847397082 C 3.4644138993362454 2.8678277100493004 3.4744147992293155 2.8607218074936966 3.497559296659874 2.857486222234175 C 3.5245276675789587 2.8537087925532005 3.527128520801925 2.8709084826169797 3.5330268843611505 2.888448760602814 C 3.547393502164199 2.9312854324358266 3.562441295811358 2.97387440396189 3.5772259078823834 3.0165717443722437 L 3.5971038575150502 3.0138315597266194 C 3.5998595234298594 2.9724810897353016 3.6025377829987466 2.9311151384747998 3.605370855259477 2.889764668483482 C 3.6067951320244345 2.8688649550846503 3.593713459563684 2.8430576793543896 3.632447595062852 2.8384132985990935 C 3.686632037207971 2.8319266468108633 3.6897282910448346 2.8305797763918275 3.702779000967216 2.8751193878351153 C 3.7290971585805597 2.9649107491041695 3.7446558341108007 3.055847724292863 3.725660316821641 3.149261702551048 C 3.716603774348814 3.223091875291069 3.6088076970183955 3.3751489012194567 3.525951944343917 3.3234569434130132 C 3.4864282641163475 3.294027050693622 3.446811696273673 3.2633276939011155 3.4132328234128835 3.2275195182777847 Z M 2.52674438738037 3.6066867631401416 C 2.5859137982028395 3.633004920753485 2.6446497334881487 3.6590289342523263 2.6980910747124196 3.6827307573735197 L 2.8377476040241683 3.5843008478996152 C 2.855938095315744 3.6154181989600978 2.876326926831493 3.648099158208197 2.894052980047538 3.6821579504137003 C 2.900493188028215 3.759455927451008 2.7735312994476096 3.8649298144037783 2.7061413346882657 3.8918207789769412 C 2.6979672245589446 3.8955672461195467 2.683229056295472 3.8949170328138054 2.676200560085791 3.889761770175427 C 2.584396633822776 3.821768035917896 2.522022600279152 3.721015936066343 2.52674438738037 3.6066712818709576 Z M 2.4853010297739457 3.333163699191582 C 2.483613571432855 3.297665148951937 2.5294071656800727 3.281409816308401 2.555260885217887 3.268343625116835 C 2.6212265732122733 3.3683216615091713 2.655889134915965 3.401482540101985 2.7643663880904934 3.4556669822471036 C 2.7504332458246052 3.4812420389396 2.7190681944571735 3.495175181205487 2.6895144515843072 3.5129476782290867 C 2.5808669044487513 3.571095325285391 2.501525399879113 3.42092701419749 2.4853010297739457 3.333148217922398 Z M 3.0555845427167303 2.3897815989066933 C 3.0622724510043566 2.31146185810322 3.143394301530191 2.206390484149242 3.2263429418197767 2.2661791457390845 C 3.266594241699008 2.292032865276899 3.309632170031417 2.3668073954371627 3.2923550736217155 2.413158315375016 C 3.253404200353968 2.4961998432797072 3.217178030462659 2.5689153646384564 3.178087825772252 2.6536907946917916 C 3.1440290335667487 2.5630944074251523 3.1045827596851026 2.4965094686633935 3.06264400146478 2.4131118715674633 C 3.0589749406680964 2.405866637589201 3.0542995973744316 2.396933945269849 3.0555845427167303 2.3897661176375085 Z M 3.770741772686378 4.173486990516454 C 3.768094475655859 4.148004821439065 3.7727853002187084 4.134458710902785 3.7973695556834075 4.12681096392573 C 3.8228981685683503 4.11885359156499 3.8275580305928307 4.138731541197656 3.8323107802324174 4.153485190730313 C 3.8411970287442165 4.180995406070849 3.846460660266885 4.209682197869395 3.8520029546348717 4.2327647702232145 C 3.8465999916895446 4.269192196613919 3.843441812775943 4.299520002946001 3.837218342563846 4.329197595972341 C 3.833239656383476 4.348131188184765 3.8233780879130643 4.363798232599296 3.798685463564075 4.356491073544298 C 3.777011686706027 4.350081828101989 3.773714176369767 4.336489273758157 3.774472758559799 4.314769053092556 C 3.7761292543625213 4.267705994772223 3.7755874099410702 4.2202404234531 3.770741772686378 4.17347150924727 Z M 3.678210226771699 3.521477857549647 C 3.6413028810362813 3.5041078735248403 3.6025068204603756 3.4902521376048736 3.575197861619236 3.4481430854235247 C 3.68047049207261 3.4273207783706154 3.742287199925598 3.359032899998581 3.7871673992909414 3.2682817000400988 C 3.8136868134036814 3.2853110961428507 3.8679176993563527 3.29477015161447 3.864233157290485 3.3302067767773775 C 3.8501142397943853 3.408511036311666 3.778312113317511 3.562642552310752 3.678210226771699 3.521462376280462 Z M 3.452895835063111 3.6834119332176307 C 3.4701110063960736 3.6501581670097116 3.4907785007571404 3.618700228027174 3.511306663695549 3.5846878796292243 L 3.6497401727417356 3.68330356433334 L 3.8221086238399513 3.6083587402120485 C 3.8269542610946434 3.7136313706654227 3.7730330005256585 3.808980507571648 3.694976441298318 3.876772985329784 C 3.6722654194049213 3.896155534348552 3.650080760663791 3.899514969761549 3.62212158851691 3.883491856155779 C 3.5618839701207214 3.8503464588321497 3.448607523499054 3.756204860922302 3.452895835063111 3.683396451948446 Z M 3.5680609965252645 4.090120355958893 C 3.562642552310753 4.080676781756458 3.5597475549732853 4.059606774396599 3.5644228982669497 4.056309264060339 C 3.7096681657542367 3.9438997685129937 3.717021768616789 4.149196879166257 3.7386181391289144 4.235396585984549 C 3.7223163626778257 4.330761204159958 3.73781311313133 4.409065463694247 3.6617381563595837 4.465835277793147 C 3.6271065571942604 4.491131671640326 3.5772568704207504 4.473095993040593 3.559964292741866 4.433881938196712 C 3.556713226213159 4.426497372795791 3.5611408691998747 4.41333829398912 3.565955543916197 4.405148702590615 C 3.627617439077343 4.300355991481955 3.628732090458614 4.1958109806802435 3.5680609965252654 4.090104874689708 Z M 4.084732874282751 3.3827347231197735 C 4.08100188840933 3.3210728279586283 4.117909234144747 3.2876332865204976 4.158377271792559 3.2396103895107378 C 4.1962289749482204 3.407334459853658 4.1881477524340065 3.5771020577289074 4.050875338576644 3.6969580437539107 C 4.0274212157623985 3.717687463191714 4.007032384246649 3.7176719819225306 3.988950261839365 3.69434170926176 C 3.959953844657134 3.6570782943351023 3.932103041394543 3.61879311564228 3.9063731720102033 3.5792384728763436 C 3.900970209064876 3.5709405125935483 3.9034317308651825 3.5537563037989535 3.9081535179663995 3.5433064470995372 C 3.9396424194873063 3.482542465551083 3.96026347004082 3.413666298950045 4.003084660604649 3.360008219957192 C 4.009370055893482 3.3677488545493524 4.0190768116720506 3.3746225380671904 4.021383520780515 3.383431380233068 C 4.032344259363013 3.4254475447993116 4.041307914220734 3.4679900725178223 4.050983707460934 3.5103777875444893 L 4.061495489237086 3.5118020643094474 C 4.069886337134988 3.468717692169485 4.087271802428979 3.4251534006848092 4.084732874282751 3.3827347231197735 Z M 4.070257887595412 4.089021185846806 C 4.064390486574554 4.075552481656448 4.059854474703549 4.049621355772713 4.0661708325307515 4.044961493748232 C 4.085259237435018 4.030842576252133 4.110338893513616 4.015841226412527 4.1324306646396405 4.01678558383277 C 4.223770152827126 4.023380604505291 4.209635754061842 4.1746945295128315 4.227114106970939 4.230055548115959 C 4.220070129492073 4.291438780431786 4.217175132154606 4.337774219100455 4.208536583949756 4.383010487657037 C 4.177574045581116 4.528998856065172 4.039295349226772 4.477910667756918 4.070629438055835 4.4037708696332105 C 4.116066963111813 4.298544682987389 4.116082444380997 4.194169966146705 4.070242406326227 4.089021185846806 Z M 3.9970005218152105 4.243276551999367 C 3.9772928661435714 4.304799115737853 3.9848632067747034 4.460215577079239 3.890179764443405 4.420893153351067 C 3.8817424727379506 4.415799815789425 3.8734445124551553 4.395859941080022 3.8769277980216272 4.387902568719282 C 3.9182473054745763 4.293466826694932 3.9077355236984235 4.20042439889717 3.8755654463334066 4.10666983271693 C 3.87184994172917 4.095832944287906 3.871772535383249 4.074159167429859 3.876742022791415 4.071836977052211 C 3.9782217422946307 4.021538333472357 3.978887436869557 4.184184547522819 3.9969850405460265 4.243276551999368 Z M 4.580551482448957 2.770109938957874 C 4.730890087497886 2.9277247405234332 4.805308548466909 3.1303435916078093 4.813683915095628 3.3470194351115476 C 4.818018670467238 3.4109725581119723 4.772983658410052 3.390366988827643 4.727840277468576 3.3936180553563493 L 4.706801232647084 3.1977180750979683 C 4.680018636958211 3.2654641090485517 4.678578878924069 3.338473774521803 4.646842277096215 3.4022566035612 L 4.634457261748758 3.4005072201433717 C 4.629611624494066 3.2983308435268617 4.637058114971723 3.195535216142979 4.635277769015528 3.0931111392195203 C 4.635277769015528 3.081918181599257 4.646764870750293 3.056064462061443 4.615152119075912 3.0613280935841116 C 4.597317696975576 2.9726823462346967 4.591264520724507 2.8783240105562684 4.577997073033545 2.788315911518634 C 4.57751715368883 2.784940994836453 4.578864024107866 2.781349340385691 4.580536001179773 2.770109938957875 Z M 5.187603009704501 3.9347813009634285 C 5.5561810664447835 3.9954523948967777 5.556320397867443 4.4210324847737255 5.182958628949205 4.436792416803363 C 5.344768854463714 5.037666917654364 4.364665183673618 5.0338275628966525 4.29102078616381 4.506086577672378 C 4.285561064792234 4.464117542338989 4.291059860361903 4.421449875455049 4.306981974692844 4.382236424197821 C 4.401092610064323 4.156209894106754 4.231990706763999 4.059297149012912 4.291841293430578 3.872515636304095 C 4.389280401676687 3.374947644720061 5.3048426612373545 3.3519579599813456 5.187587528435317 3.9347813009634294 Z M 4.341907717972669 3.260959059715914 C 4.2905408668190965 3.239285282857867 4.243802915151635 3.211202260557511 4.208613990295676 3.157729956794871 C 4.320419716344833 3.1742484710145398 4.375610440986933 3.097353006976024 4.434439263887348 3.0272228575710556 C 4.495574795896227 3.1125865758533946 4.443774469205493 3.2527230245098564 4.341892236703485 3.260959059715915 Z M 4.303359357703713 3.0122524702698183 C 4.282583494458356 3.040877336991625 4.258246939300605 3.045924230745714 4.229513703694508 3.02154123178041 C 4.204913966960625 3.0006415183815784 4.178889953461782 2.9814137820546533 4.149274285512179 2.9580680281246994 C 4.143979691451142 2.983596641009642 4.140186780500984 3.0047750172537917 4.135139886746895 3.025659249383439 C 4.1231883469366 3.0897362225373377 4.036261020466646 3.2602469213334353 3.9548295445571244 3.211047447865667 C 3.8840801443847837 3.169480240105769 3.847002504688337 3.109768984861848 3.837419599063243 3.028368471490695 C 3.8285797943589963 2.9583002471624638 3.810915666219688 2.8891144551777397 3.797013486492169 2.819711925424434 L 3.8093985018396244 2.813751636788471 L 3.8666791978216075 2.909859355884727 L 3.8726704489959394 2.9084350791197697 C 3.87037922115666 2.882829059888905 3.8696825640433654 2.856959859081907 3.865332327402572 2.8317099090422815 C 3.8610904596460687 2.807110172308398 3.8723453423430687 2.797651116836778 3.8938797877784577 2.795344407728315 C 3.915414233213846 2.7930376986198517 3.9410976587906323 2.7720296163367295 3.954752138211203 2.8095252503011516 C 3.9665953091372077 2.8420359155882227 3.9811477021704684 2.873648667262604 3.9944925562073514 2.9056639319357767 L 4.008425698473239 2.905540081782302 C 4.042917966215904 2.7948490071144163 3.9867519216151917 2.7629111487871647 4.09512080590543 2.72956449496414 L 4.149614873434235 2.8232106922600897 C 4.1773108640049825 2.79998878848361 4.169043866260556 2.7735158181784234 4.165374805463872 2.7499378452107046 C 4.15562160587775 2.6871922612066568 4.154692729726691 2.6873315926293158 4.218924515572434 2.6576075557954217 L 4.27930146539128 2.7646140883974395 C 4.325033134561761 2.6721909113670512 4.2442828344963495 2.6356396348228723 4.294504071730283 2.5892422710774663 C 4.320141053499516 2.5636826956541543 4.343595176313761 2.5359247800066695 4.375084077834667 2.5013086621105303 C 4.4249028020698065 2.675689678202709 4.433912900735081 2.870428563272266 4.303343876434528 3.0122524702698192 Z M 3.755523685078192 1.3391452657128373 C 4.025996938997442 1.252450158280647 4.2972132938375385 1.1387092735834503 4.443573212706096 0.8793515709385425 C 4.44498200820187 0.8775712249823459 4.4475209363480985 0.8766887926388394 4.458435231123043 0.8697067402367112 C 4.421001522235358 1.123924661512425 4.247193313103001 1.3015257815949406 4.0206249385904815 1.4021540312930185 C 3.8354689591460187 1.4807524349418095 3.6181119397981703 1.5091605638950365 3.4767989146836995 1.6660632270781162 C 3.3846853630369975 1.7684873040015756 3.324958626523892 1.8838227594247572 3.3498525073722782 2.0379542754238438 C 3.3852117261892647 1.9468934500816755 3.422211959539788 1.8661121874778954 3.49862750423359 1.8111227193351918 C 3.395274551159072 1.9798685534442766 3.3996712316074187 2.258825542876533 3.614504804078223 2.3347302056872525 C 3.504680680484659 2.252679479010358 3.4402476381395206 2.101350072733633 3.504200761139945 1.9703785354342886 C 3.522251921008862 2.401624769832698 4.1502341242016065 2.299680612253953 4.023349641966922 1.8875692265673625 L 4.060504688009289 1.875044879797248 L 3.980002088250827 1.8149156302853506 L 4.055643569485413 1.8054720560829158 C 3.9589165996217837 1.7346762121030217 3.854820545626418 1.7088224925652078 3.7394850902032366 1.7234213294060214 L 3.735583810368788 1.709937143946479 L 3.8905203523654595 1.6337228557520729 C 3.8903965022119853 1.6311994088750286 3.8902881333276946 1.6286759619979847 3.890179764443405 1.6261525151209406 L 3.7431077071923675 1.637360954010388 C 3.779581577390625 1.5699864705202287 4.087442096390006 1.5080923563213187 4.170390736679591 1.5581278183250395 L 4.107056864446539 1.6445597441810966 C 4.160142136479572 1.619015650026969 4.209728641676948 1.6020326977317703 4.247363607064029 1.6677816479575758 C 4.258819746260426 1.6877834477437172 4.279688497120889 1.7044567746552293 4.262566213403031 1.719597455917494 C 4.279595609505783 1.7350787251018138 4.300030884829084 1.74574531956981 4.3081895136892205 1.7624805715580596 C 4.3256833478675025 1.7983506722581286 4.336876305487765 1.8373170267950607 4.350577228715888 1.8750293985280637 C 4.3588597077295 1.8977868642290137 4.351041666791418 1.9126798451843292 4.3284699763206795 1.9206681800834382 C 4.288729558324531 1.9347251725028003 4.249051065405119 1.9490143839599274 4.198969159593846 1.9669262124061855 C 4.251125555475818 1.9701617976657084 4.293002388619403 1.9744346279605804 4.334925665570541 1.9746668469983455 C 4.358658451230103 1.9748216596901886 4.368736757469096 1.9833982828183019 4.3686283885848045 2.006093823442514 C 4.391850292361284 2.1590797255219614 4.304412084008247 2.1361364845908 4.188194196241558 2.130300046108311 C 4.187296282628868 2.1339071818282576 4.186413850285362 2.13749883627902 4.1855314179418555 2.141136934537335 C 4.221881437986639 2.1564479097606273 4.257519319648942 2.173864337592987 4.294798215844785 2.1863886843631017 C 4.324042333333964 2.1962038090259597 4.332402218693497 2.2105239830214556 4.3173544250463385 2.2373375412486975 C 4.223770152827126 2.396082475464712 4.268418133154704 2.3859577254181668 4.1053539248362645 2.2997425373306903 L 4.0995329676229595 2.3067091084636346 C 4.2280275018528135 2.4558092119778174 4.210131154675739 2.401624769832698 4.060226025163972 2.521604606011176 C 4.043041816369377 2.5341908778580278 4.029635037255757 2.5301657478701043 4.0164604771799 2.5140033028416746 C 3.991210527140275 2.483040764473035 3.9646601504891668 2.4531154711397454 3.9321804477404645 2.4257600684910523 C 3.9439152497821786 2.461846906959701 3.9544579940967 2.4983981835038804 3.9677873668643997 2.533881252474341 C 3.9766116902994617 2.5572734502118477 3.9731284047329893 2.571144667400999 3.9473675728102817 2.576872736999197 C 3.910615039766707 2.5850468471285173 3.8740947257608966 2.5941807959472665 3.837311230178953 2.6022310559231125 C 3.8037168760489797 2.6095691775164798 3.784674914952266 2.5971996434382087 3.7790861767767265 2.5615927243142735 C 3.7758351102480194 2.541111005183418 3.766159317007819 2.5216510498187286 3.7593785211050874 2.501726656378509 L 3.7492228085201735 2.5028103452214117 C 3.7433244449609475 2.5339896213586313 3.7523190623570377 2.591409648763273 3.71312048878234 2.599939828083833 C 3.6692008623797734 2.5911123955619777 3.6258605616782185 2.5796142649690808 3.583341009210187 2.5655094854179064 C 3.575832593655793 2.563032482348415 3.570212892941885 2.5445633282115216 3.5699032675581988 2.5332929642453372 C 3.5695471983669593 2.5209079488978814 3.5763434755388754 2.508306195781845 3.5817309572150187 2.489945410529242 C 3.5705225183255718 2.4950232668216987 3.5625651459648306 2.4961379182029697 3.5591283042059123 2.500596523728054 C 3.5029158157976474 2.581610005369599 3.3978908856512224 2.4191495665493483 3.38157362793095 2.3670705770132963 C 3.346833659881336 2.268207192002231 3.3136418187501544 2.168796802146653 3.281998104537405 2.0688394074465624 C 3.184202927100058 1.7415034518133061 3.4614105331144867 1.4364914863438396 3.755523685078192 1.3391452657128373 Z M 3.8164734418568584 1.889736604253167 C 3.8178357935450786 1.7826836278435965 3.9723233787354046 1.7927154902750355 3.9728342606184874 1.895000235775836 C 3.9655271015634885 1.9983531888503538 3.8176345370456826 1.992207124984179 3.8164734418568584 1.889736604253167 Z M 3.5522855832264426 1.2583794843782417 C 3.4967542706622883 1.3300113168940888 3.4471058403881747 1.3353213922243106 3.3589400123834743 1.281152431348376 C 3.399160349724337 1.206687526571798 3.459119305275207 1.1991171859406657 3.5522855832264435 1.2583794843782417 Z M 3.383679080540017 1.4160097672129848 L 3.2584975379156083 1.5299519084095774 C 3.2516036290164476 1.4934442897947993 3.256431766781431 1.4556916121195658 3.272291348758837 1.422093906002422 C 3.2961634658410586 1.3775233320207656 3.3471278039958388 1.4043368902480076 3.383679080540017 1.4160097672129848 Z M 3.289336226130773 1.1954326438747978 L 3.1775305000816165 1.3218681693031369 L 3.0615757938910617 1.1959899695654332 C 3.1373294944697454 1.1890568625504676 3.2135495025569845 1.1888703535584109 3.2893362261307693 1.1954326438747978 Z M 3.0743323596989405 1.4056373168594902 C 3.100232523044308 1.4246792779562034 3.1096141721700055 1.5000730588838407 3.094458009638556 1.5342402199736338 L 2.9772802831824405 1.421412730158312 C 2.998892134963752 1.3995376968008684 3.052937245686212 1.3898928660990373 3.074332359698942 1.4056373168594902 Z M 2.998644434656802 1.282019382422698 C 2.8650256003269394 1.3401515482098183 2.9142405550638912 1.3454925860784086 2.7951276699597356 1.262218839135953 C 2.8787420048242467 1.2002782811294896 2.949506886265772 1.2078021779530692 2.998644434656802 1.282019382422698 Z M 1.9054036486676986 0.8722921121904927 C 2.146570860021031 1.2219830205259061 2.3559085819314016 1.2352349869476837 2.7166221539260507 1.3921221688615792 C 2.9737660350776003 1.5160961724896111 3.179125070807601 1.8275328646705706 3.0638515404611564 2.1142614512333555 C 3.031340875174085 2.1970397975619127 3.003242371604545 2.2815520460391143 2.9728216776573566 2.365181862172809 C 2.960730806424403 2.409473773309147 2.8505196511012305 2.5788233769164206 2.8020632785543103 2.507981089128974 C 2.796799647031641 2.5012002932262414 2.788315911518634 2.4969429442005535 2.7788413747778304 2.4895893413380015 C 2.7774325792820576 2.498212408273668 2.7757451209409667 2.5018814690703515 2.776488221861814 2.5049932041764 C 2.790158182551568 2.56369817692334 2.7904213641277016 2.5644722403825564 2.733140668145719 2.5815635615620454 C 2.7052743836139435 2.589877003114025 2.6762779664317127 2.5948619717913757 2.6476995435174584 2.6008841855040763 C 2.625870953967568 2.605528566259372 2.61648930484187 2.5959456606342783 2.615529466152442 2.5737764831623324 C 2.6144457773095393 2.548619420737813 2.610885085397146 2.523570727197584 2.608330675981733 2.4984755898498014 L 2.5986703640107174 2.4967881315087106 C 2.556375536599156 2.6421417678802883 2.5802166911430082 2.6052499034140544 2.419226972895268 2.578838858185605 C 2.3885740599103156 2.5728011632037204 2.3789756730160367 2.557397300365322 2.3916393512088105 2.52706949403324 C 2.4045197671701644 2.4961069556646005 2.4142729667562857 2.4637201405310036 2.4182361716674716 2.4273546392170364 C 2.292311528122216 2.5677078256420787 2.342377952664305 2.544687178364996 2.1884941369721678 2.4403743866010497 C 2.1683684870325517 2.4253265929538905 2.1695605447597446 2.4094118482324105 2.186419646901469 2.391438094709415 C 2.2111896775963804 2.364841274250754 2.2346438004106246 2.33683565829632 2.2586397676463204 2.3093873680325205 L 2.254428862428185 2.3029007162442907 C 2.0822926303677347 2.3956335186583657 2.1405950901158826 2.3839451604242043 2.040462241031703 2.2297826818867486 C 2.027798562838929 2.2084959367583092 2.0346412838183983 2.196854022331701 2.0565317984450266 2.1885096182413526 C 2.096937911016101 2.173028349057033 2.13678669789654 2.156231171992046 2.174390700745252 2.134588357672367 C 1.985937210964529 2.1268477230802074 2.0074716563999173 2.1803664706504007 1.9909066983726953 1.9772677002213106 L 2.1621914606280086 1.966771399714342 C 2.115050995961755 1.9496026721889315 2.0747222897366027 1.9345858410801413 2.0341458832045003 1.9203275921613827 C 2.0082147573207645 1.9111781620734498 2.000845673189029 1.893808178048643 2.009731921700828 1.8687904470467827 C 2.021141617089672 1.8366668134893191 2.032489387401778 1.804496736124303 2.044874402749234 1.772729171758079 C 2.055850622600917 1.7445842243809857 2.071610554630554 1.7225388970625146 2.111010384704648 1.735682494600002 C 2.0903583716127656 1.7158200262365197 2.083236987787978 1.6991776618633763 2.103269750112488 1.6754448762038139 C 2.155906065339175 1.6130553613910057 2.154822376496272 1.612188410316684 2.2670925406209586 1.6576104541034775 C 2.2335910741060907 1.6210746588284835 2.2125984730921533 1.5959485589423323 2.1854443269428567 1.5588244754383338 C 2.260667813909466 1.50827813155153 2.5631872950402568 1.5642274383836612 2.6188114952195183 1.6334132303683861 L 2.4496321855732726 1.6215081343656441 L 2.4484246465768953 1.6303789016082595 L 2.640330459385723 1.7171514153863712 C 2.49441949732351 1.7162535017736809 2.428097740137885 1.7304498256157017 2.303814111126166 1.7954711561898444 C 2.304495286970276 1.7986499767956912 2.3051661419682636 1.8018287974015383 2.3058266761201276 1.8050076180073855 L 2.377040514367998 1.81355327859713 C 2.349421930143172 1.8414195631289054 2.306414964349132 1.843571459545526 2.32637032032772 1.8869809383383582 C 2.2348760194483908 2.311864371102012 2.824588525217496 2.397661564921512 2.8533062795544093 1.9662140740237066 C 2.9038061796336603 2.0389760391900094 2.8959571761572107 2.2079850548752273 2.7548918513496887 2.325751069560347 C 2.945992638160931 2.279740737544549 2.9620312330358867 1.9730567950031759 2.8668833526290576 1.819606454848199 C 2.9371528334566848 1.8750448797972477 2.97731124572081 1.9492775655360608 3.004233172832342 2.0440848580208346 C 3.048401233815206 1.8342981793041184 2.9116861456484786 1.640194026271118 2.7327536364161116 1.5494737888510048 C 2.6459037162920778 1.5088199759729815 2.555570510601573 1.4730272816188341 2.463472440224055 1.4466936427363062 C 2.1938970999174967 1.3669496251678754 1.9391063716819628 1.1677056907656813 1.9054036486676986 0.8722921121904927 Z M 2.547984688701256 1.8920742758999993 C 2.5493470403894767 1.997346906353373 2.3876142212208884 1.9930276322509484 2.389673230022403 1.8874298951447035 C 2.3914380947094154 1.7850212994904286 2.5512047926915944 1.7889070980556927 2.547984688701256 1.8920278320924466 Z M 1.9795589280605899 2.4964320623174716 C 2.0164972363343767 2.5393306592272213 2.047986137855283 2.5738384082390695 2.0764561918852467 2.6107921977820405 C 2.0817198234079157 2.617603956223141 2.0744436268912856 2.6337354387132024 2.073623119624516 2.64562505344676 C 2.0709758225939976 2.683275500103025 2.06865363221635 2.7209569092976595 2.0662075916852274 2.7586383184922934 L 2.0814876043701505 2.761951310097738 L 2.1353469398623988 2.658675763369142 C 2.249443893750835 2.678027349849541 2.149481338627683 2.762090641520397 2.206792997148034 2.8264462775196137 L 2.2623088284430044 2.7211736470662404 C 2.2848185938370054 2.73278459895448 2.306461408156684 2.741299297005856 2.3246364181790757 2.7546286697735547 C 2.331742320734678 2.759830376219486 2.3329963035386085 2.7756212707874925 2.3335226666908753 2.786736822061834 C 2.3360461135679196 2.8259508769057153 2.3262929139817974 2.866418914553527 2.347842840686371 2.901963908600725 L 2.3597479366891125 2.901499470525195 C 2.372535465035361 2.8701963442345013 2.385849356533875 2.8391099557123862 2.397878302690092 2.807528166576375 C 2.4040708103638204 2.7911025399718117 2.4118114449559798 2.7767978472455006 2.4317513196653837 2.78511128879748 C 2.452898733371165 2.7939510935017267 2.4884282461491787 2.78511128879748 2.4874838887289346 2.8241860122187026 C 2.4868956004999307 2.8483213108770573 2.4831646146265096 2.8723637219203053 2.479743254136775 2.9070727274315504 L 2.5388662211516917 2.808936962072148 L 2.550337841617272 2.8144482939017657 C 2.551591824421202 2.819851256847093 2.554719040796435 2.825579326445292 2.5538056459145597 2.830564295122642 C 2.53978993687969 2.9070108023548134 2.525428479499703 2.9834211866255544 2.510721273774599 3.0597954479348646 C 2.5041417343712635 3.127324744116867 2.406996770239657 3.2493171452893064 2.3353804189929943 3.208787182564757 C 2.2524008161650406 3.1548659219957718 2.2225684104468564 3.0651519670726386 2.205957008612082 2.9724036833893797 C 2.2051674638836816 2.9691990606682253 2.2025820919298997 2.966427913484232 2.199764500938354 2.9615667949603557 C 2.1715111846769704 2.9837824162398547 2.1439390442596973 3.0051310864450316 2.116738454302847 3.0269287134565532 C 2.0984086315886126 3.041635919181657 2.0826796620973442 3.0395923916493266 2.0650464964964037 3.024204010080113 C 1.913268133413333 2.888990605024266 1.9337962963517408 2.6811855287631428 1.9795589280605899 2.496385618509918 Z M 2.2907324386654158 3.5087832168185047 L 2.3024362781687615 3.507993672090104 C 2.312096590139777 3.4586393859304927 2.3217723833799764 3.4092850997708815 2.333956142228036 3.346988472573179 C 2.3494374114123557 3.3637701683689816 2.3610948071081483 3.3719442784983022 2.366683545283688 3.3831217548493813 C 2.392614671167423 3.43490660027093 2.4176169209001 3.4871868463063778 2.441132968791081 3.540101824378383 C 2.446303712698644 3.5517437388049915 2.4499727734953276 3.570568962133124 2.4442292226279454 3.579455210644924 C 2.417338258054782 3.62072827429032 2.38769162756681 3.6603138795946255 2.35730189615799 3.699156383978084 C 2.3438641545060004 3.7163560740418635 2.3277636345543082 3.714002921125847 2.3096660308778385 3.7005961420122255 C 2.168786481300529 3.5957879496343814 2.1502089582793458 3.4040833933249504 2.1929837050356205 3.244641801995642 C 2.2229244796380945 3.2839487444546296 2.265745670201923 3.311211259488217 2.263315110939985 3.372300347689542 C 2.261581208791342 3.41741276609265 2.280870870195004 3.4632218416090517 2.290778882472969 3.508752254280136 Z M 1.9091501158103037 3.0391898786505354 C 1.9875008191521457 3.1132058266207676 2.0330002692848614 3.14023612261659 2.1410285656530443 3.1679630757257065 C 2.0119767057325553 3.3423595730870677 1.8441752290437143 3.2242684517490767 1.909196559617857 3.0391434348429818 Z M 1.7805007688886074 2.775435495557281 C 1.7645550616287584 2.87341644822484 1.7491202362519915 2.968270184517167 1.7337008921444093 3.0631239208094936 L 1.7289171799664544 3.0535564964535844 L 1.723312960521731 3.0533707212233727 L 1.723312960521731 3.3867134093001443 L 1.7093798182558435 3.3885092365255254 C 1.695121569337085 3.3291385692036592 1.6808478391491417 3.2697679018817936 1.6642828811219197 3.200814328934834 C 1.6356889769384813 3.3466943284586783 1.650938027085036 3.48421444262299 1.6566660966832343 3.6214404126727993 L 1.6431354674161391 3.6241651160492396 L 1.586752685046847 3.4034796238267617 L 1.5770149667299096 3.402566228944887 C 1.5691504819842752 3.5417738014502893 1.561285997238641 3.680965892686508 1.5532357372627952 3.8237496383734886 C 1.4094611903480176 3.65405944684416 1.5710082342863938 2.911717108186847 1.7805472126961606 2.7753890517497277 Z M 1.2338726352594638 4.1197979489852345 C 1.9500980728028299 4.123343159628443 2.66633899161538 4.119085810602756 3.3825644291587467 4.116562363725711 C 3.4441334367047856 4.116345625957131 3.452555247141056 4.1230025717063885 3.4695227181670703 4.18189331968354 C 3.4845859930834138 4.233167283222007 3.482619871897005 4.3498805716025934 3.412365872338562 4.354106958089912 C 3.0475962078176217 4.360098209264243 2.6827181744123907 4.356754255120431 2.317917547353081 4.357512837310462 L 2.317917547353081 4.3533638571690645 C 1.9604240793487713 4.3533638571690645 1.602940932190584 4.353338055053757 1.245468105878519 4.353286450823143 C 1.1894259114312817 4.353286450823143 1.1895033177772034 4.3528220127476125 1.189224654931886 4.296841743377113 C 1.1889924358941208 4.252905901432014 1.190494119005 4.208861690602625 1.187676528013454 4.165096142618553 C 1.1853853001741745 4.129086710495826 1.1994732551319054 4.119596692485838 1.2339190790670165 4.119751505177681 Z M 1.297655464298861 4.492199879214045 C 1.2969278446471977 4.4557260090157875 1.3111706122967721 4.445926365622113 1.3446101537349024 4.446452728774379 C 1.4287818142900484 4.4478150804626 1.5129844373835635 4.446901685580725 1.5971870604770786 4.446901685580725 L 1.5971870604770786 4.4461431033906935 C 1.6813742023014089 4.4461431033906935 1.7655923066641082 4.447087460810938 1.84974848595007 4.445616740238426 C 1.8788687532857749 4.445121339624528 1.8922910136685798 4.454069513213065 1.892074275899999 4.484428282083516 C 1.8912073248256775 4.6039746427248325 1.89100090790322 4.723531324212272 1.8914550251326265 4.843098326545835 C 1.8914550251326265 4.86981899715797 1.8803859176658377 4.878860058361612 1.8539284286298354 4.878937464707534 C 1.7753919500577817 4.8791851650144835 1.7749739557898052 4.879835378320225 1.7748501056363306 4.800679648980799 C 1.7748501056363306 4.748213627715139 1.7748501056363306 4.695732125180295 1.7762743824012885 4.6432815851838205 C 1.777048445860504 4.614765087346303 1.7681467160795206 4.601280901886761 1.7367661834429042 4.601002239041443 C 1.6537246555382135 4.600243656851411 1.653894949499241 4.599082561662588 1.654235537421296 4.683873472985106 C 1.6544367939206928 4.735116473985205 1.6533531050777903 4.7863749562544875 1.654235537421296 4.837602475985402 C 1.6546844942276417 4.864632771981224 1.645411213986234 4.87712615621297 1.6164147968040032 4.878008588556476 C 1.5360515284681993 4.880470110356783 1.5345808078956897 4.880423666549229 1.5349833208944814 4.799905585521583 C 1.535246502470615 4.747455045525108 1.5361908598908587 4.694973542990264 1.5384046813842163 4.642569446801342 C 1.5395812578422245 4.614703162269566 1.5337603006289202 4.600367507004886 1.5005994220361074 4.6007700200036785 C 1.4156072542141922 4.601698896154738 1.4157156230984829 4.600135287967122 1.4156072542141922 4.685111974519852 C 1.4155298478682707 4.738785534781889 1.4147712656782394 4.79244361377474 1.4148486720241609 4.846117174036777 C 1.4148486720241609 4.869013971160387 1.4048632534002745 4.877575113019315 1.3816103870854266 4.8786278393238485 C 1.2980115334901001 4.882281418851348 1.2980115334901001 4.883009038503011 1.2980115334901001 4.799673366483819 C 1.2981044211052062 4.697125439406883 1.2997454356387437 4.594608474868319 1.2977019081064136 4.4921534354064905 Z M 1.3451984419639065 4.991610141831014 C 1.546785208435995 4.99116634544773 1.7483719749080828 4.990350998604022 1.9499587413801707 4.989164101299892 C 2.0042360711403955 4.988854475916205 2.0072394373621534 4.985123490042783 2.0073787687848124 4.929979209208238 C 2.0077038754376835 4.784826829336056 2.0089268957032447 4.63965896819469 2.0073787687848124 4.494522069591693 C 2.0070226995935734 4.4586364876224405 2.0199650406316647 4.449223875958373 2.0540702766447207 4.448620106460186 C 2.0884851380414635 4.448016336961997 2.0983776690502434 4.460649052616402 2.098207375089216 4.492912017596524 C 2.0974178303608157 4.638048916199521 2.0980215998590044 4.783216777340887 2.0984395941269813 4.928369157213068 C 2.0985944068188243 4.985804665886893 2.0991052887019066 4.9851854151195205 2.1579805554098748 4.999304332615621 C 2.5264347619966836 5.088522886924855 2.9100296498457565 5.274669667597115 3.0954023670588002 5.621930016670589 C 3.0987153586642444 5.630986559143416 3.096037099095357 5.650941915122004 3.0915475310319054 5.652443598232884 C 3.079735322644269 5.656391321874886 3.065430629917958 5.6531402553461785 3.0521477009578115 5.652211379195119 C 3.0503673550016144 5.652087529041644 3.0487108591988927 5.648944831397228 3.047147251011276 5.647102560364293 C 2.6206382849832686 5.151856759157907 1.9263033620665309 5.160758488938891 1.344083790582636 5.00020224622831 Z M 0.8604953850720415 4.172341376596815 C 0.9181476315144482 4.060566613086028 1.072666179243143 4.105957694334452 1.07455489408363 4.236418349750714 C 1.022708123585343 4.468699312592246 0.79476191611542 4.332959544384131 0.8605418288795943 4.172294932789262 Z M 0.8233403390296744 4.427364323870114 C 0.9092923455410172 4.485883521386842 0.9971330668928472 4.4971229228146585 1.0856549640887871 4.440229258562283 C 1.1122053407398955 4.424020369726301 1.1766383830850342 4.452722642794029 1.1768860833919834 4.483793550046959 C 1.1722417026366876 4.637661884469912 1.1887911793947252 4.796840294223087 1.170182693835173 4.947798150039388 C 0.9879836368049146 4.876584311791517 0.8063728680036603 4.805463361158752 0.6363266072830931 4.697001589253409 Z M 0.615581706576104 4.851798799827422 C 0.8229223447616975 4.956885655050584 1.0370592601192077 5.04686279154985 1.2622498016743215 5.1032765364575114 C 1.8431844278159182 5.250843994322446 2.545151616440526 5.215360925351986 2.975066461689084 5.701039302202463 C 2.9229100658071108 5.745656319991673 2.922538515346688 5.746120758067201 2.8760947077937287 5.710002957060184 C 2.714052263241454 5.583969944630637 2.5273636381477433 5.5090870455860825 2.331339807735887 5.459717278157287 C 1.7189317613425688 5.3006936810959555 1.0744155626609713 5.220624556874654 0.5161609958744033 4.903753939209999 C 0.5408845827617614 4.845420516923482 0.5516750273832323 4.812755038944567 0.615581706576104 4.851798799827422 Z M 0.40865906265848706 5.089622057036941 C 0.4406898086008445 5.043178249483981 0.4409994339845308 5.042497073639871 0.4919482908701268 5.065177132994901 C 0.7762308369017894 5.191690064769161 1.0753134762736611 5.271186382030643 1.3767028247539972 5.342911102161596 C 1.779711224160207 5.464299733835846 2.538757852267402 5.5332533067828065 2.829170980896055 5.79850937298694 C 2.815237838630167 5.810894388334395 2.8005925579818007 5.821731276763418 2.788579093094769 5.835107093338672 C 2.7707291897252477 5.8548766740870475 2.7555885084629836 5.856455763543847 2.7324904548399784 5.840370724861339 C 2.5432938641384073 5.699816281936902 2.3166945270875208 5.639888288924401 2.0863642041632118 5.606711929062404 C 2.2947575686533392 5.70464643792241 2.4927320389824192 5.8155697316280595 2.645578609639208 5.994657053552269 C 1.9568633874363783 5.588908469500434 1.1552432690723045 5.458912252159703 0.42527046449326245 5.148125773284485 C 0.38224801743003756 5.131591777795632 0.3820622421998257 5.128170417305897 0.40865906265848706 5.089622057036941 Z M 0.26522510366576507 5.283958429107706 C 0.2690180146159234 5.26963825511221 0.2690180146159234 5.268244940885621 0.2696837091908492 5.2673315460037475 C 0.3304167282009354 5.1844138682525305 0.30405212678003896 5.19408966149273 0.3911961910185744 5.230455162806697 C 1.0019941854167234 5.49276978786581 1.636834590858121 5.691255140077973 2.2537322053148916 5.9375311702621305 C 2.3261690638283237 5.966945581712338 2.392568227359871 6.011175567771939 2.4593079788134733 6.053640689144528 C 1.7073672532618815 5.854164535704568 0.979995301905805 5.587530636543031 0.26522510366576507 5.283958429107705 Z M 3.622725358015098 6.402836196866042 C 3.6076156392912018 6.407279321121942 3.5913293441092975 6.421274388464567 3.583557746978769 6.435238493268824 C 3.4419505777497967 6.689735077389856 3.10815893286668 6.754833814309919 2.8865910083006967 6.566968612758201 C 2.8277621854002817 6.5215775315097755 2.7984406615651807 6.4344799110787925 2.732010535495265 6.398470478956065 C 2.210663314444115 6.2377439422844585 1.679686743960318 6.101648104885104 1.1694086303759572 5.908797934656032 C 1.7008031951277305 5.985523104733521 2.206514334302717 6.161653504243525 2.7273816360091536 6.315397988513006 C 2.6772068425827733 5.660431933131992 3.6784114832710966 5.6593946880966435 3.634429197518444 6.310490426181576 C 4.1593990355587245 6.169378657566503 4.674956261934939 5.977302550796647 5.21622787642631 5.905051467513427 C 4.693518303686938 6.096941799053069 4.157788983563555 6.249618075748829 3.622725358015098 6.402836196866042 Z M 3.9043606070162418 6.055204297332144 L 3.9000568141830003 6.044986659670492 C 4.1173054646465586 5.907203363930046 4.359850508957296 5.824843011869467 4.6024265158064015 5.745160919377772 C 5.077701479765015 5.578969494684101 5.549121607696734 5.4025449510595935 6.014318265416356 5.209818630983998 C 6.031935949748113 5.202728209697579 6.0436552705206426 5.201938664969179 6.0547553405258 5.218348810304557 C 6.066908136835491 5.236322563827553 6.080005290565426 5.253661585313991 6.097266905705942 5.2776420712805026 C 5.389401353522108 5.596401403785646 4.6505113378928975 5.842507140008776 3.9043606070162413 6.055204297332144 Z" fill="#210e03" transform="matrix(1,0,0,1,0,0)" fill-rule="nonzero"/>
    </g>
    <g clip-path="url(#SvgjsClipPath2099aae6cb3c-5e7a-4b2b-a6f7-59f27010e572)">
      <path d=" M 5.014398570070333 4.347728675185973 C 5.344072197350421 4.703101209312032 4.724000922710864 4.968310831708611 4.706646419955241 4.565395319917507 C 4.738119840206963 4.431699079241722 4.869664184466128 4.430166433592475 4.92525742210702 4.5427152605624785 C 5.004103526062759 4.444672382818182 4.884696496844103 4.34277466904699 4.777984108356587 4.365625022363046 C 4.76312208993964 4.367173149281477 4.74556633068462 4.367266036896583 4.7328871712226634 4.360825828915907 C 4.573879055430515 4.281360474192794 4.625849676082277 4.024077261618585 4.807367557268425 4.015067162953311 C 4.903196613519364 4.0109027015427285 4.998282568849456 3.926638153372477 4.9229352317293715 3.8340911261886133 C 4.869122340044676 3.9490085873438185 4.738166284014517 3.9546592505960954 4.706197463148896 3.8233935691822487 C 4.685901519248253 3.7177648695376355 4.774315047559902 3.619969692100288 4.8915237365543875 3.6195207352939427 C 5.054959495333251 3.6121361698930223 5.166238858230141 3.81017256529884 5.077655035957464 3.9470579474265945 C 5.0640779628828145 3.9700940759728627 5.0463054658592155 3.99062223891127 5.0322794359782215 4.013441629688957 C 5.027635055222926 4.021104857935195 5.028563931373984 4.032251371747906 5.026953879378816 4.041818796103816 C 5.037883655422945 4.041633020873604 5.050438964731429 4.044915049940679 5.059464544665888 4.040704144722545 C 5.1792121618066 3.977602491527257 5.361117074722356 4.081296032523831 5.33156333184949 4.222020769409297 C 5.307985358881772 4.333811014189269 5.162384022203244 4.402563330636833 5.065811865031458 4.336257054720392 C 5.046831829011483 4.324615140293783 5.027124173339843 4.318035600890448 5.014398570070333 4.347728675185973 Z M 5.2299597621928005 4.191042749771473 C 5.226569364241434 4.093619122794549 5.081958828790704 4.088045865888194 5.076911935036615 4.188859890816484 C 5.077453779458065 4.286562180638725 5.227900753391285 4.289658434475589 5.2299597621928005 4.191042749771473 Z" fill="#210e03" transform="matrix(1,0,0,1,0,0)" fill-rule="nonzero"/>
    </g>
    <g clip-path="url(#SvgjsClipPath2099aae6cb3c-5e7a-4b2b-a6f7-59f27010e572)">
      <path d=" M 4.726508888318723 4.800958311826116 C 4.4704486960100756 4.762456395364713 4.30162545555507 4.485837077579289 4.444207944742654 4.265027735203337 C 4.460432314847821 4.234529634910228 4.458574562545703 4.209744122946132 4.447041017003384 4.17895187853852 C 4.3158372606662745 3.921281634234703 4.407052898700286 3.704048465040329 4.682449196220149 3.616981807147715 C 4.604547449684652 3.704234240270541 4.595227725635692 3.812339942984645 4.647631821824614 3.9142221754866533 C 4.664336111274495 3.9465780280818814 4.667354958765437 3.9623534413807033 4.637429665432148 3.9889347805701805 C 4.498825862424934 4.107892852982493 4.517109241331615 4.302755588205525 4.644287867680802 4.415737890712689 C 4.656502589067229 4.429020819672836 4.664413517620417 4.438278618645059 4.652647753040334 4.4557414902849715 C 4.570937614285494 4.575984508039582 4.622676015899491 4.727128139086095 4.726508888318723 4.800958311826116 Z" fill="#210e03" transform="matrix(1,0,0,1,0,0)" fill-rule="nonzero"/>
    </g>
    <g clip-path="url(#SvgjsClipPath2099aae6cb3c-5e7a-4b2b-a6f7-59f27010e572)">
      <path d=" M 3.195333959643584 6.5918934561449545 C 2.676262485162529 6.58463274089751 2.7129376118601827 5.870296018194629 3.212858756360234 5.904432216746054 C 3.669246571913978 5.950643805261248 3.641039699460148 6.561658537427978 3.195333959643584 6.5918934561449545 Z" fill="#210e03" transform="matrix(1,0,0,1,0,0)" fill-rule="nonzero"/>
    </g>
  </g>
</svg>